<svg width="1540" height="874" viewBox="0 0 1540 874" fill="none" xmlns="http://www.w3.org/2000/svg">
<g clip-path="url(#clip0_2954_27892)">
<mask id="mask0_2954_27892" style="mask-type:alpha" maskUnits="userSpaceOnUse" x="-49" y="-154" width="1687" height="1028">
<rect x="-48.7881" y="-154" width="1686.01" height="1028" fill="#563AFF"/>
</mask>
<g mask="url(#mask0_2954_27892)">
<g opacity="0.6">
<path opacity="0.3" fill-rule="evenodd" clip-rule="evenodd" d="M840.143 677.833C831.432 693.767 808.408 700.311 789.965 709.548C772.803 718.145 756.129 726.725 736.705 729.648C713.837 733.089 686.059 739.738 669.825 727.628C653.471 715.43 666.132 691.97 661.94 673.882C658.151 657.511 637.295 642.746 646.534 627.01C655.871 611.105 684.824 612.87 703.324 603.391C720.384 594.649 730.561 575.851 750.085 573.95C769.902 572.017 785.659 584.279 800.54 593.909C815.066 603.308 827.596 614.236 834.3 628.444C841.646 644.003 848.939 661.744 840.143 677.833Z" stroke="white"/>
<path opacity="0.3" fill-rule="evenodd" clip-rule="evenodd" d="M900.978 689.566C886.906 715.306 849.824 725.902 820.102 740.845C792.446 754.75 765.578 768.626 734.293 773.372C697.464 778.961 652.718 789.734 626.608 770.202C600.311 750.528 620.752 712.631 614.057 683.424C607.999 656.994 574.455 633.181 589.37 607.758C604.445 582.064 651.06 584.877 680.872 569.543C708.365 555.404 724.8 525.041 756.24 521.94C788.152 518.793 813.495 538.57 837.432 554.099C860.796 569.257 880.944 586.885 891.701 609.814C903.485 634.937 915.182 663.573 900.978 689.566Z" stroke="white"/>
<path opacity="0.3" fill-rule="evenodd" clip-rule="evenodd" d="M959.91 700.931C940.657 736.17 889.941 750.694 849.294 771.161C811.473 790.213 774.728 809.222 731.953 815.73C681.597 823.399 620.415 838.169 584.74 811.446C548.805 784.529 576.787 732.646 567.661 692.671C559.403 656.497 513.568 623.919 533.983 589.112C554.617 553.935 618.341 557.758 659.112 536.757C696.714 517.389 719.209 475.821 762.194 471.561C805.825 467.236 840.451 494.295 873.163 515.538C905.092 536.274 932.619 560.393 947.306 591.778C963.389 626.154 979.353 665.346 959.91 700.931Z" stroke="white"/>
<path opacity="0.3" fill-rule="evenodd" clip-rule="evenodd" d="M1013.14 711.199C989.205 755.02 926.183 773.091 875.668 798.548C828.666 822.235 783.003 845.881 729.847 853.995C667.273 863.535 591.246 881.918 546.928 848.697C502.291 815.241 537.083 750.724 525.762 701.023C515.518 656.047 458.579 615.552 483.959 572.271C509.612 528.529 588.793 533.265 639.462 507.143C686.188 483.055 714.163 431.365 767.574 426.056C821.793 420.664 864.805 454.303 905.446 480.708C945.109 506.481 979.302 536.464 997.536 575.483C1017.5 618.222 1037.32 666.947 1013.14 711.199Z" stroke="white"/>
<path opacity="0.3" fill-rule="evenodd" clip-rule="evenodd" d="M1062.57 720.732C1034.28 772.513 959.832 793.876 900.154 823.974C844.625 851.985 790.672 879.922 727.888 889.52C653.966 900.807 564.157 922.537 511.815 883.286C459.096 843.76 500.216 767.509 486.854 708.777C474.764 655.629 407.517 607.783 437.512 556.631C467.822 504.934 561.358 510.521 621.219 479.642C676.421 451.172 709.479 390.08 772.574 383.798C836.617 377.423 887.417 417.166 935.414 448.364C982.259 478.816 1022.64 514.242 1044.17 560.35C1067.75 610.855 1091.14 668.434 1062.57 720.732Z" stroke="white"/>
<path opacity="0.3" fill-rule="evenodd" clip-rule="evenodd" d="M1113.9 730.632C1081.09 790.694 994.773 815.468 925.582 850.386C861.197 882.866 798.642 915.277 725.849 926.405C640.151 939.505 536.023 964.726 475.35 919.215C414.238 873.372 461.921 784.941 446.445 716.831C432.441 655.196 354.487 599.715 389.273 540.391C424.429 480.435 532.862 486.903 602.267 451.088C666.272 418.06 704.615 347.211 777.761 339.918C852.01 332.519 910.896 378.604 966.531 414.78C1020.84 450.094 1067.65 491.17 1092.59 544.64C1119.92 603.205 1147.03 669.977 1113.9 730.632Z" stroke="white"/>
<path opacity="0.3" fill-rule="evenodd" clip-rule="evenodd" d="M1176.64 742.726C1138.31 812.906 1037.49 841.867 956.66 882.652C881.455 920.611 808.387 958.487 723.364 971.498C623.267 986.815 501.642 1016.28 430.785 963.112C359.415 909.563 415.124 806.248 397.062 726.674C380.716 654.665 289.68 589.854 330.319 520.54C371.391 450.49 498.039 458.038 579.11 416.186C653.872 377.592 698.665 294.814 784.105 286.288C870.828 277.632 939.598 331.474 1004.57 373.73C1067.99 414.979 1122.66 462.968 1151.79 525.436C1183.69 593.856 1215.35 671.864 1176.64 742.726Z" stroke="white"/>
<path opacity="0.3" fill-rule="evenodd" clip-rule="evenodd" d="M1245.08 755.923C1200.72 837.129 1084.08 870.656 990.565 917.865C903.554 961.79 819.017 1005.63 720.651 1020.69C604.845 1038.42 464.133 1072.53 382.167 1011.01C299.607 949.052 364.073 829.49 343.187 737.412C324.287 654.089 218.975 579.098 266.003 498.887C313.529 417.824 460.044 426.546 553.845 378.111C640.343 333.446 692.175 237.655 791.023 227.782C891.355 217.761 970.907 280.053 1046.07 328.949C1119.43 376.676 1182.67 432.203 1216.36 504.487C1253.26 583.656 1289.87 673.919 1245.08 755.923Z" stroke="white"/>
<path opacity="0.3" fill-rule="evenodd" clip-rule="evenodd" d="M1311.62 768.753C1261.4 860.692 1129.37 898.649 1023.53 952.092C925.043 1001.83 829.355 1051.46 718.013 1068.51C586.937 1088.59 427.666 1127.2 334.901 1057.58C241.461 987.439 314.441 852.088 290.81 747.852C269.427 653.526 150.241 568.639 203.474 477.834C257.277 386.065 423.112 395.929 529.282 341.094C627.19 290.526 685.868 182.083 797.75 170.901C911.312 159.551 1001.35 230.063 1086.41 285.409C1169.45 339.433 1241.02 402.289 1279.14 484.114C1320.9 573.74 1362.33 675.918 1311.62 768.753Z" stroke="white"/>
<path opacity="0.3" fill-rule="evenodd" clip-rule="evenodd" d="M1372.46 780.49C1316.89 882.233 1170.79 924.242 1053.66 983.392C944.681 1038.43 838.798 1093.36 715.601 1112.24C570.562 1134.47 394.325 1177.2 291.683 1100.15C188.297 1022.54 269.06 872.75 242.921 757.396C219.268 653.011 87.389 559.078 146.303 458.586C205.843 357.027 389.34 367.937 506.823 307.249C615.163 251.284 680.098 131.273 803.898 118.894C929.556 106.329 1029.18 184.357 1123.3 245.605C1215.17 305.389 1294.36 374.944 1336.54 465.494C1382.74 564.674 1428.57 677.753 1372.46 780.49Z" stroke="white"/>
<path opacity="0.3" fill-rule="evenodd" clip-rule="evenodd" d="M1437.09 792.952C1375.83 905.115 1214.79 951.428 1085.69 1016.64C965.555 1077.33 848.843 1137.88 713.037 1158.69C553.169 1183.2 358.901 1230.33 245.766 1145.38C131.812 1059.83 220.844 894.699 192.041 767.54C165.974 652.468 20.6148 548.925 85.5609 438.138C151.196 326.178 353.464 338.198 482.96 271.292C602.387 209.59 673.971 77.2893 810.433 63.6378C948.942 49.7823 1058.74 135.798 1162.49 203.311C1263.75 269.214 1351.04 345.885 1397.52 445.709C1448.44 555.041 1498.95 679.697 1437.09 792.952Z" stroke="white"/>
<path opacity="0.3" fill-rule="evenodd" clip-rule="evenodd" d="M1507.44 806.517C1439.98 930.018 1262.68 981.023 1120.53 1052.83C988.267 1119.65 859.761 1186.33 710.25 1209.25C534.233 1236.24 320.351 1288.13 195.798 1194.61C70.3409 1100.41 168.375 918.588 136.669 778.574C107.978 651.871 -52.0532 537.859 19.458 415.879C91.7285 292.601 314.413 305.83 456.996 232.157C588.479 164.218 667.302 18.5414 817.543 3.50621C970.04 -11.7548 1090.92 82.9492 1205.14 157.286C1316.63 229.846 1412.72 314.268 1463.89 424.176C1519.94 544.558 1575.55 681.815 1507.44 806.517Z" stroke="white"/>
</g>
</g>
</g>
<defs>
<clipPath id="clip0_2954_27892">
<rect width="1540" height="874" fill="white"/>
</clipPath>
</defs>
</svg>
